<?xml version="1.0" standalone="no"?>
<!DOCTYPE svg PUBLIC "-//W3C//DTD SVG 20010904//EN"
 "http://www.w3.org/TR/2001/REC-SVG-20010904/DTD/svg10.dtd">
<svg version="1.0" xmlns="http://www.w3.org/2000/svg"
 width="1024.000000pt" height="1024.000000pt" viewBox="0 0 1024.000000 1024.000000"
 preserveAspectRatio="xMidYMid meet">
<metadata>
Created by potrace 1.11, written by Peter Selinger 2001-2013
</metadata>
<g transform="translate(0.000000,1024.000000) scale(0.100000,-0.100000)"
fill="#000000" stroke="none">
<path d="M0 5120 l0 -5120 5120 0 5120 0 0 5120 0 5120 -5120 0 -5120 0 0
-5120z m8450 2115 l0 -235 480 0 480 0 0 -160 0 -160 -480 0 -481 0 3 -433 3
-433 35 -69 c52 -105 122 -142 250 -133 82 6 141 36 180 90 57 78 63 116 68
421 l4 277 210 0 210 0 -4 -322 c-4 -297 -6 -329 -27 -396 -53 -178 -163 -316
-311 -392 -118 -60 -302 -88 -466 -70 -189 20 -306 71 -420 185 -78 77 -120
148 -156 267 -22 73 -22 74 -26 936 l-3 862 226 0 225 0 0 -235z m-6547 -223
c161 -44 299 -147 362 -272 30 -58 65 -182 65 -227 l0 -33 -220 0 c-203 0
-220 1 -220 18 0 32 -47 118 -79 145 -48 40 -129 60 -243 59 -158 -1 -244 -36
-268 -108 -24 -71 10 -126 106 -173 37 -18 200 -71 362 -117 323 -92 418 -131
495 -202 91 -86 123 -187 115 -371 -4 -102 -7 -116 -41 -183 -48 -99 -147
-195 -249 -243 -269 -128 -717 -120 -981 17 -178 93 -295 253 -314 429 l-6 59
235 0 235 0 6 -42 c12 -88 110 -175 226 -199 83 -17 253 -7 322 20 76 29 111
67 117 129 3 36 -1 59 -17 90 -30 58 -105 92 -341 151 -405 101 -597 205 -674
363 -57 116 -58 302 -2 423 63 137 250 251 471 284 33 6 150 8 260 7 165 -3
214 -7 278 -24z m1699 17 c105 -23 180 -74 269 -186 l58 -73 22 42 c29 56 123
149 179 176 76 36 158 52 265 52 123 0 206 -19 299 -68 122 -64 209 -166 265
-311 l26 -66 3 -667 3 -668 -221 0 -220 0 0 528 c0 297 -5 557 -10 596 -19
131 -86 235 -176 272 -48 20 -150 17 -200 -5 -90 -41 -166 -158 -184 -283 -5
-35 -10 -298 -10 -585 l0 -523 -224 0 -225 0 -3 598 c-4 642 -4 647 -57 720
-31 44 -98 73 -184 79 -154 12 -256 -50 -296 -182 -20 -65 -21 -89 -21 -641
l0 -574 -230 0 -230 0 0 870 0 870 215 0 215 0 0 -127 0 -128 21 35 c87 144
187 220 334 250 60 12 257 11 317 -1z m2653 -18 c175 -47 297 -136 360 -265
71 -146 69 -120 73 -839 l3 -647 -213 2 -212 3 -7 35 c-4 19 -10 52 -13 73
l-7 38 -45 -39 c-52 -47 -158 -104 -232 -126 -145 -42 -385 -40 -523 5 -221
73 -333 271 -301 533 14 112 35 175 80 244 93 142 240 208 582 262 368 58 423
85 424 215 1 71 -29 116 -102 152 -54 26 -65 28 -187 28 -125 0 -132 -1 -183
-29 -61 -34 -104 -93 -123 -167 l-13 -49 -214 0 -215 0 7 63 c29 256 151 412
386 491 113 37 185 45 400 42 161 -3 209 -7 275 -25z m1635 -201 l0 -230 -78
6 c-201 17 -373 -62 -431 -200 -38 -87 -41 -135 -41 -636 l0 -490 -230 0 -230
0 0 870 0 870 215 0 215 0 0 -101 0 -101 69 74 c115 123 219 166 404 167 l107
1 0 -230z m-1198 -1992 l3 -233 483 -3 482 -2 0 -160 0 -160 -486 0 -486 0 4
-412 c4 -387 5 -417 25 -476 42 -124 112 -176 238 -176 84 -1 135 15 181 57
82 71 94 129 94 465 l0 272 216 0 216 0 -4 -317 c-5 -284 -7 -326 -26 -396
-61 -223 -212 -380 -432 -449 -66 -20 -95 -23 -245 -23 -193 0 -251 11 -375
72 -98 48 -212 160 -257 253 -71 146 -67 91 -70 1053 l-4 867 220 0 221 0 2
-232z m-3014 -213 c173 -36 309 -112 430 -239 163 -173 244 -425 229 -711 -22
-413 -225 -701 -574 -814 -151 -48 -419 -54 -578 -12 -353 93 -570 358 -616
752 -34 299 46 590 216 777 129 142 319 236 525 262 96 11 278 4 368 -15z
m1274 -622 l3 -598 24 -53 c49 -108 149 -159 296 -150 145 10 226 65 289 198
l31 65 3 568 3 567 229 0 230 0 0 -870 0 -870 -215 0 -215 0 0 123 -1 122 -31
-40 c-142 -180 -307 -253 -547 -243 -92 5 -130 11 -184 31 -128 49 -232 143
-296 266 -77 149 -74 120 -78 839 l-4 642 230 0 230 0 3 -597z"/>
<path d="M6180 6078 c-31 -15 -124 -42 -210 -62 -199 -44 -261 -68 -315 -120
-82 -78 -88 -223 -13 -303 61 -65 235 -71 361 -11 85 41 156 108 193 184 29
60 47 174 42 275 l-3 65 -55 -28z"/>
<path d="M3307 4221 c-137 -45 -220 -147 -258 -316 -20 -88 -17 -323 4 -405
39 -148 101 -229 211 -281 56 -26 84 -33 160 -37 238 -12 378 93 437 328 21
83 18 337 -5 420 -39 144 -115 239 -225 281 -80 32 -243 37 -324 10z"/>
</g>
</svg>
